# xmcd
#
# Track frame offsets:
# 150
# 16422
# 32107
# 45937
# 63015
# 83549
# 102425
# 118792
# 141748
# 159697
# 174297
# 189808
# 206080
# 226819
# 246777
# 260179
#
# Disc length: 3652 seconds
#
#
# Revision: 2
# Processed by: cddbd v1.5.1PL0 Copyright (c) Steve Scherf et al.
# Submitted via: FreeRIP 2.90 
#
DISCID=d30e4210
DTITLE=Bruno and Marrone - Perfil)
DYEAR=2003
DGENRE=Bailão
TTITLE0=Vida Vazia
TTITLE1=Ligação Urbana
TTITLE2=Amor De Carnaval
TTITLE3=Como Eu Chorei
TTITLE4=Passou Da Conta (Participação Zezé Di Camargo and Luciano)
TTITLE5=Agora Vai
TTITLE6=Menina
TTITLE7=Homen Do Meu Tempo
TTITLE8=Mais uma Vez
TTITLE9=Programa De Fim De Semana
TTITLE10=Tá Combinado
TTITLE11=Que Pena (Perticipação Felipe and Falcão)
TTITLE12=Medo
TTITLE13=Bijuteria
TTITLE14=Vivendo De Passado
TTITLE15=Credo Em Cruz Ave-Maria
EXTD=
EXTT0=
EXTT1=
EXTT2=
EXTT3=
EXTT4=
EXTT5=
EXTT6=
EXTT7=
EXTT8=
EXTT9=
EXTT10=
EXTT11=
EXTT12=
EXTT13=
EXTT14=
EXTT15=
PLAYORDER=
